<svg width="769.985528" height="659.983748856" xmlns="http://www.w3.org/2000/svg" xmlns:xlink="http://www.w3.org/1999/xlink">
 <defs>
  <linearGradient id="linearGradient_C5EEEB26" x1="1" y1="0.5" x2="0" y2="0.5" gradientUnits="objectBoundingBox" xlink:href="#linearStops_C5EEEB26"/>
  <linearGradient id="linearStops_C5EEEB26">
   <stop id="stop_C5EEEB26_0" offset="0" stop-color="#6D5656"/>
   <stop id="stop_C5EEEB26_1" offset="1" stop-color="#000000"/>
  </linearGradient>
  <linearGradient id="linearGradient_F6EEEB26" x1="0.080617" y1="0.772246" x2="0.919383" y2="0.227754" gradientUnits="objectBoundingBox" xlink:href="#linearStops_F6EEEB26"/>
  <linearGradient id="linearStops_F6EEEB26">
   <stop id="stop_F6EEEB26_0" offset="0" stop-color="#000000"/>
   <stop id="stop_F6EEEB26_1" offset="1" stop-color="#6D5656"/>
  </linearGradient>
  <linearGradient id="linearGradient_77EEEB26" x1="0.03425" y1="0.68187" x2="0.96575" y2="0.31813" gradientUnits="objectBoundingBox" xlink:href="#linearStops_F6EEEB26"/>
 </defs>
 <g>
  <title>background</title>
  <rect x="-1" y="-1" width="771.985528" height="661.983749" id="canvas_background" fill="none"/>
 </g>
 <g>
  <title>Layer 1</title>
  <g id="layer_Paper" transform="matrix(1,0,0,1,1.4210854715202004e-14,0) " stroke-miterlimit="10" stroke-linecap="square" fill-rule="nonzero" stroke="#000000" fill="#000000">
   <g id="21EEEB26">
    <path id="02EEEB26" d="m714.99052,257.94049c55.04501,15.99404 55.04501,15.99404 55.04501,15.99404l-51.32981,15.06962l35.11978,14.70616l-36.97425,6.91398l-1.86073,-52.6838z" stroke-miterlimit="4" stroke-width="1.8" fill="#1A1A1A"/>
    <path id="C5EEEB26" d="m198.68208,155.42109c-7.39666,93.97685 105.18801,244.64934 216.44979,256.61324c43.4754,4.67487 107.28353,-36.39818 103.96168,-79.99781c-9.26485,-121.60226 -196.96729,-127.71265 -320.41147,-176.61543z" fill="url(#linearGradient_C5EEEB26)"/>
    <path id="F6EEEB26" d="m1,503.22265c121.82198,135.78554 341.21855,196.98365 500.78045,131.2643c133.11736,-54.82755 219.42947,-231.70104 219.47245,-371.97911c0.02934,-96.07003 -96.18584,-205.3357 -238.61948,-160.29181c-63.98019,20.2334 -112.79515,84.5047 -154.02806,142.88495c-92.12808,122.62266 -173.82412,205.00205 -327.60536,258.12167z" fill="url(#linearGradient_F6EEEB26)"/>
    <path id="77EEEB26" d="m92.64061,228.84804c7.75102,93.9483 143.01524,224.64295 254.75684,218.63171c43.66287,-2.34891 100.06857,-53.11177 89.80631,-95.61647c-28.62215,-118.54838 -214.87999,-94.51573 -344.56315,-123.01524z" fill="url(#linearGradient_77EEEB26)"/>
    <path id="08EEEB26" d="m402.55117,154.87614c38.72502,3.46011 107.10769,15.72131 161.06849,19.06495c44.28826,2.74428 96.61845,1.55763 133.11725,0.79244c26.43493,45.31008 28.57487,93.6178 21.11434,135.89076c-77.82984,13.03357 -135.78078,3.42348 -199.28181,-16.86996c-57.7705,-18.46211 -115.07024,-46.27904 -156.59835,-92.63621c18.5188,-26.34697 24.82112,-32.03836 40.58008,-46.24198z" stroke="#1E90FF" fill="#8e01ba" stroke-width="0"/>
    <g id="28EEEB26">
     <g id="48EEEB26">
      <g id="78EEEB26">
       <path id="D8EEEB26" d="m689.07242,265.55957c-7.65562,20.08299 -34.39268,27.70885 -59.71897,17.03283c-25.32625,-10.67602 -39.65113,-35.61112 -31.99552,-55.6941c7.65562,-20.08298 34.39272,-27.70883 59.71897,-17.03282c25.32629,10.67603 39.65114,35.61111 31.99552,55.69409z" fill="#FFFFFF"/>
       <path id="29EEEB26" d="m686.44813,263.13502c-5.77783,15.15699 -24.83341,21.38589 -42.56177,13.91269c-17.72839,-7.47322 -27.41623,-25.8186 -21.6384,-40.97559c5.77782,-15.15695 24.83338,-21.38589 42.56177,-13.91268c17.72836,7.47321 27.41622,25.81863 21.6384,40.97558z" fill="#1A1A1A"/>
       <path id="89EEEB26" d="m679.30213,243.6799c-2.04277,5.35879 -8.53797,7.66304 -14.50741,5.14668c-5.96948,-2.51637 -9.15269,-8.90045 -7.10992,-14.25924c2.04277,-5.35881 8.53797,-7.66306 14.50745,-5.1467c5.96944,2.51636 9.15265,8.90045 7.10988,14.25926z" fill="#FFFFFF"/>
      </g>
     </g>
    </g>
    <path id="4AEEEB26" d="m686.28916,236.82782c-9.73719,-6.07228 -17.8112,-14.40428 -27.50299,-20.55132c-9.33279,-6.29653 -18.95958,-12.36942 -29.42509,-16.59604c-4.58737,-1.58592 -9.17809,-3.16288 -13.74393,-4.81015c-3.12173,0.74433 0.59362,-2.04695 1.24317,-3.07995c3.15984,-3.52638 6.31972,-7.05276 9.47959,-10.57912c4.09968,0.54016 7.7211,2.7983 11.71404,3.75766c10.80572,4.42532 20.57133,10.96297 30.33615,17.27584c9.59453,6.47496 18.54663,13.89543 28.21835,20.23215c2.86402,0.53586 2.71012,2.52788 0.50355,3.73584c-3.60763,3.53835 -7.21519,7.07681 -10.82284,10.61509z" fill="#1A1A1A"/>
    <path id="9AEEEB26" d="m409.57667,206.78499c-18.66598,-0.64902 -40.39398,1.67139 -54.69966,-15.59091c-12.59586,-13.80014 -22.84535,-30.97955 -29.45538,-49.7036c-1.14638,-13.60113 -1.15882,-30.21601 -13.58051,-36.67819c-14.33664,-9.0986 -31.27597,-7.78917 -46.95219,-10.30784c-29.58259,-1.96771 -57.76758,10.36616 -85.34189,21.27717c-13.09079,5.13813 -29.18324,4.19454 -38.7808,-8.91747c-7.47637,-8.57605 -12.0202,-19.68275 -16.73968,-30.31476c-6.9118,-6.8826 -7.3269,-17.57502 2.00349,-20.42798c5.74443,-3.8948 11.48888,-7.78959 17.23331,-11.68438c8.82554,19.10096 15.54044,43.6445 34.15156,52.15542c19.10664,4.83701 36.82784,-8.14902 54.83974,-13.40988c25.53464,-9.71496 52.82174,-11.17731 79.19402,-6.02591c15.18509,1.59593 33.56142,8.18062 38.1523,27.75631c1.34282,16.97486 4.40267,33.50889 14.55305,46.25623c9.60424,17.24962 23.68827,33.6921 42.17708,34.40115c6.11986,2.40074 26.14696,-2.50318 23.94209,3.38136c-6.89884,5.94443 -13.79769,11.88885 -20.69653,17.83328z" stroke="#1E90FF" fill="#8e01ba" stroke-width="0"/>
    <path id="DAEEEB26" d="m397.07148,196.8305c-13.53548,-8.82647 -30.09319,-16.61345 -35.84967,-32.86134c-3.81297,-10.87947 -7.72975,-21.8799 -9.63858,-33.26242c-1.67269,-15.46862 0.04608,-31.05715 -0.72531,-46.56074c2.49447,-9.89318 -3.92145,-18.9949 -13.83027,-20.82138c-12.98712,-3.78578 -26.72467,-3.28793 -40.04037,-5.12165c-12.24012,-0.66709 -26.84795,1.9959 -36.55625,-7.21027c-7.36319,-8.78136 -10.56182,-20.14641 -14.21062,-30.78564c-0.83657,-5.55707 6.54284,-5.77933 9.75063,-9.06527c5.85346,-3.71393 11.7069,-7.42786 17.56035,-11.14179c1.2703,10.35184 5.81042,20.01405 9.86778,29.50377c5.60006,9.97037 17.86617,10.44611 27.98511,10.1956c15.86718,1.00955 31.98305,1.32235 47.52153,4.84733c9.79448,2.28834 21.33732,9.22248 20.30709,20.62503c0.66041,23.62439 -3.25202,48.12267 4.86998,70.90304c3.35644,10.19022 6.65019,21.18982 15.66286,27.95535c6.75794,6.26526 15.25646,10.38116 22.78748,15.38093c-6.17076,5.39723 -14.04494,9.46318 -20.86661,14.37683c-1.53175,1.01416 -3.06348,2.02835 -4.59513,3.04262z" stroke="#1E90FF" fill="#8e01ba" stroke-width="0"/>
   </g>
   <polygon id="507C0036" points="566.6151123046875,231.105224609375 545.4844970703125,238.32106018066406 538.2686767578125,259.4516906738281 531.0527954101562,238.32106018066406 509.92218017578125,231.105224609375 531.0527954101562,223.889404296875 538.2686767578125,202.75877380371094 545.4844970703125,223.889404296875 " stroke="#FFFFFF" fill="#FFFFFF"/>
  </g>
 </g>
</svg>